<svg viewBox="0 0 48.00 48.00" id="b" xmlns="http://www.w3.org/2000/svg" fill="#FDE68A" transform="rotate(0)" stroke="#FDE68A" stroke-width="1.344"><g id="SVGRepo_bgCarrier" stroke-width="0"></g><g id="SVGRepo_tracerCarrier" stroke-linecap="round" stroke-linejoin="round" stroke="#CCCCCC" stroke-width="0.288"></g><g id="SVGRepo_iconCarrier"><defs><style>.c{fill:none;stroke:#FDE68A;stroke-linecap:round;stroke-linejoin:round;}</style></defs><path class="c" d="m19.308,12.467c-.4234-1.4115-.7215-2.8773-.8813-4.3843-.1571-1.4812-1.449-2.5826-2.9385-2.5826h-6.9092c-1.7767,0-3.1454,1.5345-2.989,3.3043,1.5754,17.8285,15.7771,32.0302,33.6056,33.6056,1.7698.1564,3.3043-1.2073,3.3043-2.9839v-6.1595c0-2.2488-1.1015-3.5362-2.5826-3.6932-1.507-.1598-2.9728-.4579-4.3843-.8813-1.7266-.5179-3.5957-.0304-4.8704,1.2442l-2.9566,2.9566c-5.326-2.8825-9.7164-7.2729-12.5989-12.5989l2.9566-2.9567c1.2746-1.2746,1.7621-3.1438,1.2442-4.8703Z"></path></g></svg>